<?xml version="1.0" encoding="utf-8"?>
<!-- Generator: Adobe Illustrator 24.0.3, SVG Export Plug-In . SVG Version: 6.00 Build 0)  -->
<svg version="1.1" id="Livello_1" xmlns="http://www.w3.org/2000/svg" xmlns:xlink="http://www.w3.org/1999/xlink" x="0px" y="0px"
	 viewBox="0 0 3300 2200" style="enable-background:new 0 0 3300 2200;" xml:space="preserve">
<style type="text/css">
	.st0{fill:#FFFFFF;}
	.st1{fill:none;stroke:#000000;stroke-width:4;}
	.st2{font-family:'Helvetica-Bold';}
	.st3{font-size:13px;}
	.st4{font-family:'Helvetica-Light';}
	.st5{fill:none;stroke:#00AEEF;stroke-width:4;}
	.st6{fill:#27AAE1;}
	.st7{fill:none;stroke:#27AAE1;stroke-width:0.5;}
	.st8{fill:none;stroke:#00AEEF;stroke-width:0.5;}
	.st9{display:none;}
	.st10{display:inline;}
	.st11{display:inline;fill-rule:evenodd;clip-rule:evenodd;}
	.st12{display:inline;fill:none;stroke:#000000;stroke-width:4;}
</style>
<g id="Notes">
	<rect id="artboard" x="-7.8" y="3.4" class="st0" width="3300" height="2200"/>
	<line class="st1" x1="255.2" y1="295.4" x2="3028.2" y2="295.4"/>
	<text transform="matrix(1 0 0 1 255.2157 325.3591)" class="st2 st3">Weight/Scale Variations</text>
	<text transform="matrix(1 0 0 1 525.9272 325.3591)" class="st4 st3">Ultralight</text>
	<text transform="matrix(1 0 0 1 836.3528 325.3591)" class="st4 st3">Thin</text>
	<text transform="matrix(1 0 0 1 1130.8965 325.3591)" class="st4 st3">Light</text>
	<text transform="matrix(1 0 0 1 1419.2996 325.3591)" class="st4 st3">Regular</text>
	<text transform="matrix(1 0 0 1 1715.3047 325.3591)" class="st4 st3">Medium</text>
	<text transform="matrix(1 0 0 1 2008.0432 325.3591)" class="st4 st3">Semibold</text>
	<text transform="matrix(1 0 0 1 2318.832 325.3591)" class="st4 st3">Bold</text>
	<text transform="matrix(1 0 0 1 2610.4849 325.3591)" class="st4 st3">Heavy</text>
	<text transform="matrix(1 0 0 1 2909.3594 325.3591)" class="st4 st3">Black</text>
	<line class="st1" x1="255.2" y1="1906.4" x2="3028.2" y2="1906.4"/>
	<g transform="matrix(1 0 0 1 263 1933)">
		<path d="M1.5,4.2c4.3,0,7.9-3.6,7.9-7.9c0-4.3-3.6-7.9-7.9-7.9c-4.3,0-7.9,3.6-7.9,7.9C-6.4,0.6-2.8,4.2,1.5,4.2z M1.5,2.7
			c-3.5,0-6.4-2.8-6.4-6.4c0-3.6,2.8-6.4,6.4-6.4c3.6,0,6.4,2.8,6.4,6.4C7.9-0.1,5,2.7,1.5,2.7z M-2.1-3.7C-2.1-3.3-1.8-3-1.4-3h2.1
			v2.1c0,0.4,0.3,0.7,0.7,0.7c0.4,0,0.7-0.3,0.7-0.7V-3h2.1C4.7-3,5-3.3,5-3.7c0-0.4-0.3-0.7-0.7-0.7H2.2v-2.1
			c0-0.4-0.3-0.8-0.7-0.8C1-7.3,0.7-7,0.7-6.5v2.1h-2.1C-1.8-4.4-2.1-4.1-2.1-3.7z"/>
	</g>
	<g transform="matrix(1 0 0 1 281.867 1933)">
		<path d="M3.9,6.3c5.4,0,10-4.5,10-10c0-5.4-4.5-10-10-10c-5.4,0-10,4.5-10,10C-6,1.7-1.5,6.3,3.9,6.3z M3.9,4.6
			c-4.6,0-8.3-3.7-8.3-8.3c0-4.6,3.7-8.3,8.3-8.3c4.6,0,8.3,3.7,8.3,8.3C12.2,0.9,8.5,4.6,3.9,4.6z M-0.6-3.7c0,0.5,0.3,0.8,0.8,0.8
			h2.9V0c0,0.5,0.3,0.8,0.8,0.8c0.5,0,0.8-0.3,0.8-0.8v-2.9h2.9c0.5,0,0.8-0.3,0.8-0.8c0-0.5-0.3-0.8-0.8-0.8H4.7v-2.9
			c0-0.5-0.3-0.8-0.8-0.8c-0.5,0-0.8,0.3-0.8,0.8v2.9H0.2C-0.3-4.5-0.6-4.2-0.6-3.7z"/>
	</g>
	<g transform="matrix(1 0 0 1 305.646 1933)">
		<path d="M7.2,9c7,0,12.7-5.8,12.7-12.7c0-7-5.8-12.7-12.7-12.7c-7,0-12.7,5.8-12.7,12.7C-5.5,3.3,0.2,9,7.2,9z M7.2,7.2
			c-6,0-10.9-4.9-10.9-10.9c0-6,4.8-10.9,10.9-10.9c6,0,10.9,4.9,10.9,10.9C18.1,2.3,13.2,7.2,7.2,7.2z M1.4-3.7
			c0,0.5,0.4,0.9,0.9,0.9h3.9v4c0,0.5,0.4,0.9,0.9,0.9c0.5,0,0.9-0.4,0.9-0.9v-4h4c0.5,0,0.9-0.4,0.9-0.9c0-0.5-0.4-0.9-0.9-0.9h-4
			v-3.9c0-0.5-0.4-0.9-0.9-0.9c-0.5,0-0.9,0.4-0.9,0.9v3.9H2.3C1.8-4.6,1.4-4.2,1.4-3.7z"/>
	</g>
	<text transform="matrix(1 0 0 1 255.2157 1956.3591)" class="st2 st3">Design Variations</text>
	<text transform="matrix(1 0 0 1 255.2157 1974.3591)" class="st4 st3">Symbols are supported in up to nine weights and three scales.</text>
	<text transform="matrix(1 0 0 1 255.2157 1992.3591)" class="st4 st3">For optimal layout with text and other symbols, vertically align</text>
	<text transform="matrix(1 0 0 1 255.2157 2010.3591)" class="st4 st3">symbols with the adjacent text.</text>
	<line class="st5" x1="768.2" y1="1922.4" x2="768.2" y2="1936.4"/>
	<g transform="matrix(1 0 0 1 776 1933)">
		<path d="M-4.5,3.5c0.5,0,0.8-0.2,1-0.7l1.3-3.4h5.8l1.3,3.4C5,3.3,5.2,3.5,5.7,3.5c0.5,0,0.8-0.3,0.8-0.8c0-0.2,0-0.3-0.1-0.5
			L1.9-10c-0.2-0.6-0.6-0.9-1.2-0.9c-0.6,0-1,0.3-1.2,0.9L-5.2,2.2c-0.1,0.2-0.1,0.4-0.1,0.5C-5.3,3.2-5,3.5-4.5,3.5z M-1.8-2.2
			l2.4-6.6h0L3-2.2H-1.8z"/>
	</g>
	<line class="st5" x1="785.4" y1="1922.4" x2="785.4" y2="1936.4"/>
	<text transform="matrix(1 0 0 1 768.2158 1956.3591)" class="st2 st3">Margins</text>
	<text transform="matrix(1 0 0 1 768.2158 1974.3591)" class="st4 st3">Leading and trailing margins on the left and right side of each symbol</text>
	<text transform="matrix(1 0 0 1 768.2158 1992.3591)" class="st4 st3">can be adjusted by modifying the x-location of the margin guidelines.</text>
	<text transform="matrix(1 0 0 1 768.2158 2010.3591)" class="st4 st3">Modifications are automatically applied proportionally to all</text>
	<text transform="matrix(1 0 0 1 768.2158 2028.3591)" class="st4 st3">scales and weights.</text>
	<g transform="matrix(1 0 0 1 1289 1933)">
		<path d="M-4.9,5.2l1.7,1.7c0.9,0.9,1.8,0.8,2.8-0.2L10.2-5.1l-1-1L-1.4,5.6C-1.7,6-2,6.1-2.5,5.7l-1.2-1.2C-4.2,4-4,3.7-3.6,3.3
			L7.8-7.5l-1-1L-4.7,2.5C-5.7,3.4-5.8,4.4-4.9,5.2z M1.5-13c-0.4,0.4-0.4,1-0.2,1.4C1.5-11.2,2-11,2.6-11.2c1.5-0.3,3-0.4,4.4,0.5
			L6.4-9.2c-0.3,0.8-0.2,1.4,0.4,2l2.3,2.3c0.5,0.5,0.9,0.5,1.5,0.4l1.1-0.2L12.3-4l0,0.6c0,0.5,0.1,0.9,0.6,1.4l0.8,0.7
			c0.5,0.5,1.1,0.5,1.6,0l2.9-2.9c0.5-0.5,0.4-1.1,0-1.5l-0.8-0.8c-0.5-0.5-0.8-0.6-1.3-0.6l-0.6,0l-0.6-0.6L15-8.8
			c0.1-0.6,0-1-0.6-1.6l-2.2-2.2C8.8-15.9,4.4-15.9,1.5-13z M3-12.6c2.4-1.8,5.7-1.5,7.9,0.8l2.4,2.4c0.2,0.2,0.3,0.4,0.2,0.8
			l-0.3,1.5l1.5,1.5l1-0.1c0.3,0,0.3,0,0.5,0.2L16.8-5l-2.4,2.4l-0.6-0.6c-0.2-0.2-0.2-0.3-0.2-0.5l0.1-1l-1.5-1.5l-1.5,0.3
			c-0.3,0.1-0.5,0-0.7-0.2l-2-2C7.7-8.3,7.6-8.5,7.8-8.8l0.9-2.1c-1.6-1.5-3.6-2.1-5.6-1.5C2.9-12.4,2.8-12.5,3-12.6z"/>
	</g>
	<text transform="matrix(1 0 0 1 1281.2158 1956.3591)" class="st2 st3">Exporting</text>
	<text transform="matrix(1 0 0 1 1281.2158 1974.3591)" class="st4 st3">Symbols should be outlined when exporting to ensure the</text>
	<text transform="matrix(1 0 0 1 1281.2158 1992.3591)" class="st4 st3">design is preserved when submitting to Xcode.</text>
	<text id="template-version" transform="matrix(1 0 0 1 2942.2339 1936.3591)" class="st4 st3">Template v.4.0</text>
	<text transform="matrix(1 0 0 1 2856.2656 1954.3591)" class="st4 st3">Requires Xcode 14 or greater</text>
	<text id="descriptive-name" transform="matrix(1 0 0 1 2814.3809 1972.3591)" class="st4 st3">Generated from paperplane.circle.fill</text>
	<text transform="matrix(1 0 0 1 2903.208 1990.3591)" class="st4 st3">Typeset at 100 points</text>
	<text transform="matrix(1 0 0 1 255.2157 729.3592)" class="st4 st3">Small</text>
	<text transform="matrix(1 0 0 1 255.2157 1159.3591)" class="st4 st3">Medium</text>
	<text transform="matrix(1 0 0 1 255.2157 1589.3591)" class="st4 st3">Large</text>
</g>
<g id="Guides">
	<g id="H-reference" transform="matrix(1 0 0 1 339 696)">
		<path class="st6" d="M1,0h2.6l25.7-67.1H30v-3.3h-1.9L1,0z M11.7-24.5H47l-0.8-2.2H12.4L11.7-24.5z M55.1,0h2.6L30.6-70.5h-1.2
			v3.3L55.1,0z"/>
	</g>
	<line id="Baseline-S" class="st7" x1="263" y1="696" x2="3036" y2="696"/>
	<line id="Capline-S" class="st7" x1="263" y1="625.5" x2="3036" y2="625.5"/>
	<g id="H-reference_1_" transform="matrix(1 0 0 1 339 1126)">
		<path class="st6" d="M1,0h2.6l25.7-67.1H30v-3.3h-1.9L1,0z M11.7-24.5H47l-0.8-2.2H12.4L11.7-24.5z M55.1,0h2.6L30.6-70.5h-1.2
			v3.3L55.1,0z"/>
	</g>
	<line id="Baseline-M" class="st7" x1="263" y1="1126" x2="3036" y2="1126"/>
	<line id="Capline-M" class="st7" x1="263" y1="1055.5" x2="3036" y2="1055.5"/>
	<g id="H-reference_2_" transform="matrix(1 0 0 1 339 1556)">
		<path class="st6" d="M1,0h2.6l25.7-67.1H30v-3.3h-1.9L1,0z M11.7-24.5H47l-0.8-2.2H12.4L11.7-24.5z M55.1,0h2.6L30.6-70.5h-1.2
			v3.3L55.1,0z"/>
	</g>
	<line id="Baseline-L" class="st7" x1="263" y1="1556" x2="3036" y2="1556"/>
	<line id="Capline-L" class="st7" x1="263" y1="1485.5" x2="3036" y2="1485.5"/>
	<line id="left-margin-Regular-M" class="st8" x1="1391.3" y1="1030.8" x2="1391.3" y2="1150.1"/>
	<line id="right-margin-Regular-M" class="st8" x1="1508.4" y1="1030.8" x2="1508.4" y2="1150.1"/>
</g>
<g id="Symbols">
	<g id="Black-L" transform="matrix(1 0 0 1 2854.19 1556)" class="st9">
		<path class="st10" d="M79.2,34.4c37.4,0,68-30.6,68-67.9s-30.6-67.9-68-67.9c-37.3,0-67.9,30.6-67.9,67.9S41.9,34.4,79.2,34.4z
			 M81.5,6.9c-3.6,0-5.4-2.7-6.5-6.3l-4.7-15c-0.9-2.8-0.6-5.3,1.3-7.4l35.8-39.6c0.5-0.6,0.5-1.2,0-1.8c-0.5-0.4-1.1-0.5-1.8,0
			L66-27.2c-2.4,2.1-4.3,2.1-7.3,1.1l-15.1-4.7c-3.7-1.1-6.2-2.8-6.2-6.4c0-3.2,2.2-5.3,5.4-6.5l60.3-23.1c1.3-0.5,2.5-0.7,3.7-0.7
			c3.1,0,5.1,2,5.1,5c0,1.1-0.2,2.4-0.7,3.7l-23,60.2C86.8,4.7,84.7,6.9,81.5,6.9z"/>
	</g>
	<g id="Heavy-L" transform="matrix(1 0 0 1 2558.42 1556)" class="st9">
		<path class="st10" d="M78.3,33.5c36.8,0,67-30.2,67-67c0-36.8-30.3-67-67.1-67c-36.8,0-67,30.2-67,67
			C11.3,3.3,41.5,33.5,78.3,33.5z M80.4,7c-3.5,0-5.1-2.6-6.2-6.3l-5-16.1c-0.8-2.7-0.6-4.9,1.2-6.8l36.2-39.6
			c0.5-0.5,0.5-1.2,0-1.7c-0.4-0.4-1.1-0.5-1.7,0L65.2-27.3c-2.2,1.9-3.9,1.9-6.8,1l-16.3-5c-3.6-1.1-6.1-2.7-6.1-6.1
			c0-3.1,2.2-5.1,5.3-6.3L102.2-67c1.4-0.5,2.6-0.8,3.8-0.8c2.9,0,4.7,1.8,4.7,4.7c0,1.2-0.3,2.4-0.8,3.8L86.7,1.5
			C85.5,4.8,83.4,7,80.4,7z"/>
	</g>
	<g id="Bold-L" transform="matrix(1 0 0 1 2262.89 1556)" class="st9">
		<path class="st10" d="M77.1,32.3c36.1,0,65.8-29.7,65.8-65.8S113.1-99.4,77-99.4c-36.1,0-65.8,29.7-65.8,65.8S41,32.3,77.1,32.3z
			 M79,7.1c-3.3,0-4.7-2.5-5.9-6.1l-5.4-17.6c-0.7-2.6-0.5-4.4,1.1-6.1l36.6-39.7c0.4-0.5,0.5-1.1,0-1.5c-0.4-0.3-1-0.4-1.6,0
			L64.2-27.3c-1.9,1.7-3.5,1.7-6.1,0.9l-17.9-5.5c-3.5-1-5.9-2.5-5.9-5.8c0-2.9,2.1-4.8,5.2-5.9l61.8-23.7c1.4-0.5,2.7-0.8,3.8-0.8
			c2.6,0,4.3,1.6,4.3,4.2c0,1.2-0.3,2.4-0.8,3.8L85,1.8C83.7,5.1,81.8,7.1,79,7.1z"/>
	</g>
	<g id="Semibold-L" transform="matrix(1 0 0 1 1966.99 1556)" class="st9">
		<path class="st10" d="M76.3,31.4c35.6,0,65-29.4,65-65c0-35.6-29.4-65-65.1-65c-35.6,0-65,29.4-65,65
			C11.3,2.1,40.6,31.4,76.3,31.4z M78.1,7.2c-3.2,0-4.5-2.5-5.6-6l-5.7-18.7c-0.7-2.4-0.5-4,1-5.6l36.8-39.7
			c0.4-0.5,0.5-1.1,0.1-1.5c-0.4-0.3-0.9-0.4-1.5,0l-39.7,37c-1.7,1.6-3.2,1.6-5.6,0.9l-19.1-5.8c-3.5-1-5.7-2.3-5.7-5.5
			c0-2.7,2.1-4.5,5-5.6l62.5-24c1.5-0.5,2.7-0.8,3.8-0.8c2.5,0,4,1.5,4,3.9c0,1.2-0.3,2.4-0.8,3.8L83.8,2
			C82.5,5.2,80.7,7.2,78.1,7.2z"/>
	</g>
	<g id="Medium-L" transform="matrix(1 0 0 1 1670.9 1556)" class="st9">
		<path class="st10" d="M75.6,30.8c35.3,0,64.4-29.1,64.4-64.4c0-35.3-29.2-64.4-64.5-64.4c-35.2,0-64.3,29.1-64.3,64.4
			C11.3,1.7,40.4,30.8,75.6,30.8z M77.4,7.3c-3.1,0-4.3-2.4-5.4-5.9l-6-19.5c-0.6-2.3-0.5-3.7,0.9-5.2L104-63.1
			c0.4-0.5,0.5-1,0.1-1.4c-0.4-0.3-0.9-0.4-1.4,0L62.9-27.3c-1.6,1.5-2.9,1.5-5.2,0.8l-19.9-6.1c-3.4-1-5.6-2.2-5.6-5.3
			c0-2.6,2.1-4.3,5-5.4l63-24.2c1.5-0.5,2.7-0.8,3.8-0.8c2.3,0,3.7,1.4,3.7,3.7c0,1.2-0.3,2.4-0.8,3.8l-24,62.8
			C81.6,5.3,79.9,7.3,77.4,7.3z"/>
	</g>
	<g id="Regular-L" transform="matrix(1 0 0 1 1374.99 1556)" class="st9">
		<path class="st10" d="M74.8,30c34.8,0,63.6-28.8,63.6-63.6s-28.9-63.6-63.7-63.6c-34.8,0-63.5,28.8-63.5,63.6S40.1,30,74.8,30z
			 M76.4,7.4c-3,0-4-2.3-5.1-5.8L65-18.9c-0.6-2.2-0.4-3.4,0.8-4.7l37.3-39.8c0.4-0.5,0.5-1,0.1-1.3c-0.4-0.3-0.9-0.3-1.3,0.1
			L62.3-27.3c-1.4,1.3-2.6,1.4-4.7,0.7l-21-6.4c-3.3-1-5.5-2.1-5.5-5c0-2.5,2-4.1,4.9-5.1l63.6-24.4c1.5-0.5,2.7-0.8,3.8-0.8
			c2.2,0,3.4,1.3,3.4,3.4c0,1.2-0.3,2.3-0.8,3.8L81.7,2.3C80.5,5.5,78.8,7.4,76.4,7.4z"/>
	</g>
	<g id="Light-L" transform="matrix(1 0 0 1 1079.2 1556)" class="st9">
		<path class="st10" d="M73.9,29.1c34.3,0,62.7-28.3,62.7-62.7s-28.4-62.7-62.7-62.7c-34.4,0-62.6,28.3-62.6,62.7
			S39.6,29.1,73.9,29.1z M75.6,7.5c-2.5,0-3.5-1.9-4.5-5.1l-6.9-22.6c-0.5-1.8-0.3-2.9,0.8-4.1l37.7-39.7c0.3-0.4,0.5-0.9,0.1-1.2
			c-0.4-0.2-0.8-0.2-1.2,0.1L62-27.2c-1.1,1.1-2.4,1.2-4,0.7l-22.9-7c-3.1-1-4.9-1.9-4.9-4.4c0-2.1,1.7-3.6,4.3-4.5l65.3-25
			c1.2-0.4,2.2-0.7,3.1-0.7c1.9,0,3,1.1,3,2.9c0,1-0.3,1.9-0.7,3.1L80.2,3.1C79.1,5.9,77.7,7.5,75.6,7.5z"/>
	</g>
	<g id="Thin-L" transform="matrix(1 0 0 1 783.716 1556)" class="st9">
		<path class="st10" d="M72.7,27.9c33.7,0,61.5-27.7,61.5-61.4S106.4-95,72.7-95c-33.8,0-61.4,27.7-61.4,61.4S38.9,27.9,72.7,27.9z
			 M74.5,7.6c-1.9,0-2.7-1.3-3.7-4.1l-7.8-25.2c-0.4-1.2-0.1-2.4,0.7-3.2l38.3-39.7c0.3-0.3,0.5-0.8,0.2-1c-0.3-0.2-0.7-0.1-1,0.1
			L61.6-27.2c-0.8,0.8-2,1.1-3.2,0.7l-25.3-7.7c-2.8-0.9-4-1.7-4-3.6c0-1.7,1.2-2.8,3.5-3.7L100-67.3c0.9-0.3,1.5-0.5,2.2-0.5
			c1.5,0,2.4,0.9,2.4,2.4c0,0.7-0.2,1.3-0.5,2.2L78.3,4.1C77.3,6.4,76.2,7.6,74.5,7.6z"/>
	</g>
	<g id="Ultralight-L" transform="matrix(1 0 0 1 487.631 1556)" class="st9">
		<path class="st10" d="M72.1,27.2c33.4,0,60.8-27.4,60.8-60.8s-27.4-60.8-60.8-60.8c-33.5,0-60.8,27.4-60.8,60.8
			S38.6,27.2,72.1,27.2z M74,7.7c-1.6,0-2.4-1-3.2-3.6l-8.2-26.6c-0.3-0.9,0-2.1,0.7-2.7l38.5-39.6c0.2-0.2,0.5-0.7,0.3-0.8
			c-0.3-0.2-0.6-0.1-0.9,0.2L61.5-27.1c-0.7,0.7-1.9,1-2.7,0.7l-26.6-8.1c-2.6-0.9-3.6-1.7-3.6-3.2c0-1.5,1-2.4,3.1-3.3l68.5-26.2
			c0.7-0.2,1.2-0.4,1.7-0.4c1.3,0,2.1,0.8,2.1,2.1c0,0.6-0.1,1-0.4,1.7L77.3,4.6C76.4,6.7,75.5,7.7,74,7.7z"/>
	</g>
	<g id="Black-M" transform="matrix(1 0 0 1 2871.36 1126)" class="st9">
		<path class="st10" d="M62,19.4c29.4,0,53.3-24,53.3-53.3c0-29.4-24-53.3-53.3-53.3c-29.4,0-53.3,24-53.3,53.3
			C8.7-4.5,32.7,19.4,62,19.4z M64-2.7c-2.8,0-4.3-2-5.2-4.8l-3.5-10.9c-0.7-2.2-0.5-4.4,1.1-6.1L84-55.2c0.4-0.4,0.4-1,0-1.4
			c-0.4-0.3-0.9-0.4-1.4,0L51.9-29c-2.1,1.8-3.6,1.8-6.1,1l-10.9-3.4c-2.9-0.9-4.8-2.3-4.8-5.1c0-2.6,1.7-4.3,4.1-5.2l46.4-17.7
			c0.9-0.4,1.8-0.5,2.7-0.5c2.5,0,4.2,1.6,4.2,4.1c0,0.8-0.1,1.8-0.5,2.7L69.2-6.9C68.3-4.3,66.6-2.7,64-2.7z"/>
	</g>
	<g id="Heavy-M" transform="matrix(1 0 0 1 2575.48 1126)" class="st9">
		<path class="st10" d="M61.2,18.6c28.9,0,52.5-23.6,52.5-52.5S90.1-86.4,61.2-86.4c-28.8,0-52.5,23.6-52.5,52.5
			S32.4,18.6,61.2,18.6z M63-2.6c-2.8,0-4.1-2-5-4.9l-3.7-11.8c-0.7-2.2-0.5-4,1-5.6l27.8-30.7c0.4-0.4,0.4-0.9,0-1.3
			c-0.4-0.3-0.9-0.4-1.3,0L51-29c-1.8,1.6-3.3,1.6-5.6,0.9l-11.9-3.7c-2.8-0.8-4.8-2.2-4.8-4.9c0-2.5,1.7-4.1,4.1-5l46.8-17.9
			c1-0.4,2-0.6,2.9-0.6c2.4,0,3.9,1.5,3.9,3.8c0,0.9-0.2,1.9-0.6,2.9L68-6.8C67.1-4.3,65.4-2.6,63-2.6z"/>
	</g>
	<g id="Bold-M" transform="matrix(1 0 0 1 2279.69 1126)" class="st9">
		<path class="st10" d="M60.3,17.6c28.3,0,51.6-23.3,51.6-51.5c0-28.3-23.3-51.5-51.6-51.5C32-85.5,8.7-62.2,8.7-33.9
			C8.7-5.6,32,17.6,60.3,17.6z M61.8-2.5c-2.7,0-3.9-2-4.8-4.9l-4-12.8c-0.6-2.1-0.5-3.6,0.9-5.1L82.1-56c0.4-0.4,0.4-0.9,0-1.3
			c-0.3-0.3-0.8-0.3-1.3,0L50.1-29.1c-1.6,1.4-2.9,1.4-5,0.8l-13-4c-2.8-0.8-4.7-2-4.7-4.7c0-2.3,1.7-3.9,4.1-4.8l47.4-18.2
			c1.1-0.4,2.1-0.6,3-0.6c2.2,0,3.5,1.4,3.5,3.5c0,0.9-0.2,1.9-0.6,3L66.7-6.7C65.7-4.1,64.1-2.5,61.8-2.5z"/>
	</g>
	<g id="Semibold-M" transform="matrix(1 0 0 1 1983.62 1126)" class="st9">
		<path class="st10" d="M59.6,17c27.9,0,50.9-23,50.9-50.9s-23.1-50.9-51-50.9c-27.9,0-50.9,23-50.9,50.9S31.7,17,59.6,17z
			 M61.1-2.4c-2.7,0-3.7-2.1-4.6-4.9l-4.2-13.5c-0.6-2-0.4-3.4,0.8-4.7l28.3-30.8c0.4-0.4,0.4-0.9,0-1.2c-0.3-0.3-0.8-0.3-1.2,0
			L49.5-29.1c-1.5,1.3-2.6,1.3-4.7,0.7L31-32.6c-2.8-0.8-4.7-1.9-4.7-4.5c0-2.2,1.7-3.7,4.1-4.6L78.2-60c1.2-0.4,2.2-0.7,3.1-0.7
			c2.1,0,3.3,1.3,3.3,3.3c0,1-0.2,2-0.7,3.1L65.8-6.7C64.8-4.1,63.3-2.4,61.1-2.4z"/>
	</g>
	<g class="st9">
		<path class="st11" d="M1449.3,1081.3l-9.2-28.1c0-1,0.4-1.7,1.2-2.4c1.1-0.9,2.9-1.5,5.2-1.6c2.2-0.1,4.3,0.4,5.7,1.3
			c1.1,0.7,1.8,1.5,2,2.7L1449.3,1081.3z M1458.9,1052.3c5.1-8.9,21.5,0.1,20.9,9.9c9.1-2.8,18,15.5,10,22.2
			c8.1,2.2,7.8,21,0.3,24.5c5.6,7.9-7.2,23.5-16.2,17.8c1.7,9.2-13.9,15.5-20.7,9.5c-4.1,8.8-23.2,4-22.5-6.9
			c-7,8.1-22.3-7-16.4-15.9c-10.2,2.6-14.5-18.1-4.8-22.3c-8.7-4.7-2-24.2,8.1-23c-5.2-8.6,9.4-20.1,17.6-15.4
			C1435.7,1042.1,1456.8,1041.2,1458.9,1052.3z M1456.4,1083.3l6.7-28.4c0.5-0.9,1.2-1.2,2.2-1.3c1.4-0.1,3.2,0.4,5.2,1.6
			c1.9,1.2,3.4,2.8,4.1,4.3c0.6,1.2,0.7,2.3,0.3,3.4L1456.4,1083.3z M1480.6,1067.2l-20.4,20.7l26.6-7.4c0.8-0.6,1.2-1.5,1.3-2.9
			c0.2-1.7-0.3-3.9-1.3-6c-1-2.1-2.5-3.6-3.7-4.3C1482.2,1066.9,1481.4,1066.8,1480.6,1067.2z M1488.4,1089.2l-27.2,5l26.9,10.3
			c0.3-0.1,0.7-0.4,1.2-1.1c0.8-1.3,1.5-3.5,1.6-6.1c0.1-2.6-0.3-4.9-1.1-6.5C1489.4,1089.7,1488.8,1089.3,1488.4,1089.2z
			 M1459.1,1099.2l26.8,12.1c0.6,0.6,0.9,1.3,0.8,2.5c-0.1,1.5-0.9,3.5-2.4,5.4c-1.5,1.9-3.2,3.1-4.8,3.6c-1.2,0.4-2.1,0.3-2.9-0.1
			L1459.1,1099.2z M1469.2,1127.4l-16-23.9l2.5,28.1c0.5,1,1.3,1.6,2.5,1.9c1.6,0.4,3.7,0.3,5.8-0.4c2.1-0.7,3.8-2,4.6-3.1
			C1469.2,1129.1,1469.4,1128.3,1469.2,1127.4z M1441.5,1100.1l-14.5,26.1c-0.5,0.5-1.2,0.7-2,0.5c-1.2-0.2-2.9-1.1-4.4-2.6
			c-1.5-1.5-2.5-3.3-2.8-4.8c-0.2-1.1-0.1-2,0.3-2.7L1441.5,1100.1z M1412.1,1087l27.3,1.4l-22.3-15.4c-0.9-0.1-1.7,0.1-2.7,0.9
			c-1.3,1-2.6,2.9-3.3,5.1c-0.8,2.3-0.9,4.5-0.5,6C1410.9,1086.1,1411.4,1086.7,1412.1,1087z M1449.1,1133.6l-1.8-30l-11.7,26.2
			c-0.1,1.2,0.4,2.2,1.3,3.2c1.1,1.2,3,2.2,5.1,2.7c2.2,0.5,4.1,0.3,5.4-0.2C1448.3,1135.1,1448.8,1134.6,1449.1,1133.6z
			 M1438.9,1094.9l-25.7,13.9c-0.8,0.1-1.4-0.1-2-0.7c-0.9-0.9-1.8-2.5-2.2-4.6c-0.4-2.1-0.2-4.1,0.3-5.5c0.4-1.1,1-1.7,1.8-2.1
			L1438.9,1094.9z M1421.8,1065.7l21.4,17.9l-9.5-25.9c-0.7-0.7-1.6-1.1-2.8-1.1c-1.6,0-3.6,0.7-5.5,2.1c-1.9,1.3-3.2,3-3.7,4.4
			C1421.3,1064.1,1421.3,1064.9,1421.8,1065.7z"/>
	</g>
	<g class="st9">
		<path class="st10" d="M1427.1,1057.5c0,2.2-1.9,4-4.2,4s-4.2-1.8-4.2-4s1.9-4,4.2-4S1427.1,1055.3,1427.1,1057.5z"/>
		<line class="st12" x1="1411.7" y1="1066" x2="1488" y2="1066"/>
		<line class="st12" x1="1436" y1="1047" x2="1436" y2="1066.5"/>
		<path class="st12" d="M1444.8,1054.5c0-0.1,0.1-0.2,0.2-0.2h24.8c0.1,0,0.2,0.1,0.2,0.2s-0.1,0.2-0.2,0.2H1445
			C1444.9,1054.6,1444.8,1054.6,1444.8,1054.5z"/>
		<path class="st12" d="M1444.8,1059.9c0-0.1,0.1-0.2,0.2-0.2h24.8c0.1,0,0.2,0.1,0.2,0.2c0,0.1-0.1,0.2-0.2,0.2H1445
			C1444.9,1060.1,1444.8,1060,1444.8,1059.9z"/>
		<path class="st12" d="M1473,1103.6c0,12.1-10,21.9-22.4,21.9s-22.4-9.9-22.4-21.9c0-12.1,10-21.9,22.4-21.9
			S1473,1091.6,1473,1103.6z"/>
		<path class="st12" d="M1423.3,1047.7h52.6c6.1,0,11,4.9,11,11v70.1c0,6.1-4.9,11-11,11h-52.6c-6.1,0-11-4.9-11-11v-70.1
			C1412.4,1052.6,1417.3,1047.7,1423.3,1047.7z"/>
	</g>
	<g id="Medium-M" transform="matrix(1 0 0 1 1687.4 1126)" class="st9">
		<path class="st10" d="M59.1,16.5c27.6,0,50.5-22.8,50.5-50.4c0-27.6-22.9-50.4-50.5-50.4c-27.6,0-50.4,22.8-50.4,50.4
			C8.7-6.3,31.6,16.5,59.1,16.5z M60.5-2.3c-2.6,0-3.6-2.1-4.5-4.9l-4.3-14.1c-0.5-2-0.4-3.1,0.7-4.4l28.5-30.8
			c0.3-0.4,0.4-0.8,0-1.2c-0.3-0.2-0.7-0.3-1.2,0L49-29.1c-1.3,1.2-2.4,1.2-4.4,0.6l-14.4-4.4c-2.8-0.8-4.6-1.8-4.6-4.4
			c0-2.2,1.8-3.6,4.1-4.5l48-18.4c1.3-0.4,2.3-0.7,3.2-0.7c2,0,3.1,1.2,3.1,3.1c0,1-0.3,2-0.7,3.2L65.1-6.7C64-4,62.6-2.3,60.5-2.3z
			"/>
	</g>
	<g id="Regular-M" transform="matrix(1 0 0 1 1391.32 1126)">
		<g>
			<path class="st1" d="M30.1-59.7v-11.3c0-2.8,2.3-5.1,5.2-5.1h0c2.9,0,5.2,2.3,5.2,5.1v1.9"/>
			<path class="st1" d="M19.7-50.3V8.6c0,2.8,2.3,5.1,5.2,5.1h66.6c2.9,0,5.2-2.3,5.2-5.1v-56.9"/>
			<path class="st1" d="M47.1,13.7v-33.1c0-2.8,2.3-5.1,5.2-5.1h11.8c2.9,0,5.2,2.3,5.2,5.1v33.1"/>
			<path class="st1" d="M4.2-37l49.4-42.9c2-1.7,4.9-1.7,6.9,0L109.8-37"/>
			<path class="st1" d="M70.2-50.3c0,6.3-5.2,11.8-12,11.8c-6.8,0-12-5.5-12-11.8c0-6.3,5.2-11.8,12-11.8
				C65-62.1,70.2-56.6,70.2-50.3z"/>
		</g>
	</g>
	<g id="Light-M" transform="matrix(1 0 0 1 1095.44 1126)" class="st9">
		<path class="st10" d="M57.7,15c26.8,0,49-22.1,49-49c0-26.8-22.2-49-49-49c-26.8,0-48.9,22.1-48.9,49C8.7-7.1,30.9,15,57.7,15z
			 M58.9-2.2c-2.2,0-2.9-1.7-3.8-4.2L50.1-23c-0.4-1.6-0.3-2.5,0.6-3.5l29.1-30.8c0.3-0.3,0.4-0.7,0.1-1c-0.3-0.2-0.6-0.2-1,0.1
			L48.1-29c-1,0.9-1.9,1-3.4,0.6l-16.9-5.1c-2.5-0.8-4-1.6-4-3.7c0-1.8,1.5-3,3.6-3.8l49.8-19.1c1.1-0.4,1.9-0.6,2.7-0.6
			c1.6,0,2.5,0.9,2.5,2.5c0,0.8-0.2,1.7-0.6,2.7l-19,49.7C61.9-3.6,60.7-2.2,58.9-2.2z"/>
	</g>
	<g id="Thin-M" transform="matrix(1 0 0 1 799.828 1126)" class="st9">
		<path class="st10" d="M56.6,13.9c26.3,0,47.9-21.6,47.9-47.9c0-26.3-21.6-47.9-47.9-47.9C30.3-81.8,8.7-60.2,8.7-34
			C8.7-7.7,30.3,13.9,56.6,13.9z M58-2c-1.6,0-2.3-1.1-3-3.4l-5.8-19c-0.3-1.1-0.1-2,0.6-2.7l29.5-30.8c0.2-0.2,0.4-0.6,0.2-0.8
			c-0.3-0.1-0.5-0.1-0.8,0.1L47.8-29c-0.7,0.7-1.7,0.9-2.7,0.6l-19.1-5.8c-2.2-0.7-3.3-1.4-3.3-3c0-1.4,1-2.3,2.9-3.1l51.8-19.8
			c0.7-0.2,1.3-0.4,1.9-0.4c1.2,0,2,0.7,2,2c0,0.6-0.2,1.1-0.4,1.9L61.1-5C60.3-3.1,59.4-2,58-2z"/>
	</g>
	<g id="Ultralight-M" transform="matrix(1 0 0 1 503.679 1126)" class="st9">
		<path class="st10" d="M56,13.4c26,0,47.3-21.3,47.3-47.3c0-26-21.3-47.3-47.3-47.3C30-81.3,8.7-59.9,8.7-34C8.7-8,30,13.4,56,13.4
			z M57.5-2c-1.3,0-1.9-0.9-2.6-2.9l-6.2-20.2c-0.3-0.8,0-1.7,0.6-2.3L79-58.1c0.2-0.2,0.4-0.6,0.2-0.7c-0.2-0.1-0.5-0.1-0.8,0.1
			L47.7-29c-0.6,0.6-1.5,0.8-2.3,0.6l-20.2-6.2c-2.1-0.7-2.9-1.3-2.9-2.6c0-1.3,0.8-2,2.5-2.7l52.7-20.2c0.6-0.2,1-0.3,1.4-0.3
			c1.1,0,1.7,0.6,1.7,1.7c0,0.5-0.1,0.9-0.3,1.4L60.2-4.5C59.5-2.8,58.7-2,57.5-2z"/>
	</g>
	<g id="Black-S" transform="matrix(1 0 0 1 2884.57 696)" class="st9">
		<path class="st10" d="M48.8,7.8c23.1,0,42-18.8,42-42s-18.8-42-42-42c-23.1,0-42,18.8-42,42S25.7,7.8,48.8,7.8z M50.4-9.8
			c-2.2,0-3.4-1.6-4.1-3.8l-2.7-8.4c-0.6-1.8-0.4-3.5,0.9-4.9l21.5-24c0.3-0.3,0.3-0.8,0-1.1c-0.3-0.2-0.7-0.3-1.1,0L40.9-30.4
			C39.2-29,37.9-29,36-29.6l-8.3-2.6c-2.2-0.7-3.8-1.9-3.8-4.1c0-2.1,1.3-3.4,3.2-4.1l36.3-13.9c0.7-0.3,1.4-0.4,2.1-0.4
			c2,0,3.3,1.3,3.3,3.3c0,0.6-0.1,1.4-0.4,2.1L54.5-13C53.8-11,52.5-9.8,50.4-9.8z"/>
	</g>
	<g id="Heavy-S" transform="matrix(1 0 0 1 2588.47 696)" class="st9">
		<path class="st10" d="M48.2,7.2c22.8,0,41.4-18.6,41.4-41.4S71-75.6,48.2-75.6C25.5-75.6,6.8-57,6.8-34.2S25.5,7.2,48.2,7.2z
			 M49.7-9.7c-2.2,0-3.3-1.6-4-3.9l-2.8-8.9c-0.6-1.7-0.4-3.3,0.8-4.5l21.7-24c0.3-0.3,0.3-0.8,0-1.1c-0.3-0.2-0.7-0.3-1.1,0
			L40.2-30.4c-1.5,1.3-2.7,1.3-4.5,0.7l-9-2.8c-2.2-0.7-3.8-1.7-3.8-3.9c0-2,1.3-3.3,3.3-4l36.5-14c0.8-0.3,1.5-0.4,2.3-0.4
			c1.9,0,3.1,1.2,3.1,3.1c0,0.7-0.1,1.5-0.4,2.3L53.7-13C52.9-11,51.6-9.7,49.7-9.7z"/>
	</g>
	<g id="Bold-S" transform="matrix(1 0 0 1 2292.43 696)" class="st9">
		<path class="st10" d="M47.5,6.5c22.3,0,40.7-18.4,40.7-40.7S69.8-74.9,47.5-74.9c-22.3,0-40.7,18.4-40.7,40.7S25.2,6.5,47.5,6.5z
			 M48.8-9.6c-2.2,0-3.2-1.7-3.9-4l-3-9.5c-0.5-1.7-0.4-3,0.7-4.2l21.9-24.1c0.3-0.3,0.3-0.7,0-1c-0.3-0.2-0.7-0.3-1,0l-24.1,22
			c-1.3,1.2-2.4,1.2-4.2,0.6l-9.7-3c-2.2-0.7-3.8-1.6-3.8-3.8c0-1.9,1.4-3.2,3.3-3.9l36.7-14.1c0.9-0.3,1.7-0.5,2.5-0.5
			c1.8,0,2.9,1.1,2.9,2.9c0,0.8-0.2,1.6-0.5,2.5l-14,36.6C51.9-11,50.7-9.6,48.8-9.6z"/>
	</g>
	<g id="Semibold-S" transform="matrix(1 0 0 1 1996.19 696)" class="st9">
		<path class="st10" d="M47.1,6c22,0,40.3-18.2,40.3-40.2S69.1-74.4,47-74.4c-22,0-40.2,18.2-40.2,40.2S25.1,6,47.1,6z M48.2-9.5
			c-2.2,0-3.1-1.7-3.8-4l-3.1-10c-0.5-1.7-0.4-2.8,0.6-3.9L64-51.6c0.3-0.3,0.3-0.7,0-1c-0.3-0.2-0.6-0.3-1,0L38.9-30.4
			c-1.2,1.1-2.2,1.1-3.9,0.5L24.8-33c-2.2-0.7-3.8-1.5-3.8-3.7c0-1.9,1.5-3.1,3.4-3.8l36.9-14.2c1-0.4,1.9-0.6,2.7-0.6
			c1.7,0,2.8,1.1,2.8,2.7c0,0.8-0.2,1.7-0.6,2.7L52.1-13.1C51.2-10.9,50-9.5,48.2-9.5z"/>
	</g>
	<g id="Medium-S" transform="matrix(1 0 0 1 1699.83 696)" class="st9">
		<path class="st10" d="M46.7,5.7c21.8,0,39.9-18,39.9-39.9c0-21.8-18.1-39.9-40-39.9c-21.8,0-39.8,18-39.8,39.9
			C6.8-12.4,24.9,5.7,46.7,5.7z M47.7-9.5c-2.2,0-3-1.8-3.7-4.1l-3.1-10.3c-0.5-1.7-0.4-2.6,0.6-3.7l22.2-24.2c0.3-0.3,0.3-0.7,0-1
			c-0.3-0.2-0.6-0.3-1,0L38.5-30.4c-1.1,1.1-2,1-3.7,0.5l-10.6-3.2c-2.2-0.6-3.8-1.5-3.8-3.7c0-1.8,1.5-3,3.4-3.7l37-14.2
			c1.1-0.4,2-0.6,2.8-0.6c1.6,0,2.6,1,2.6,2.6c0,0.8-0.2,1.7-0.6,2.8L51.6-13.1C50.7-10.9,49.5-9.5,47.7-9.5z"/>
	</g>
	<g id="Regular-S" transform="matrix(1 0 0 1 1403.58 696)" class="st9">
		<path class="st10" d="M46.2,5.2c21.5,0,39.5-17.9,39.5-39.4s-18-39.4-39.5-39.4c-21.5,0-39.4,17.9-39.4,39.4S24.8,5.2,46.2,5.2z
			 M47.1-9.4c-2.2,0-2.9-1.8-3.7-4.2l-3.2-10.7c-0.4-1.7-0.4-2.4,0.5-3.5L63.1-52c0.3-0.3,0.3-0.7,0-0.9c-0.2-0.2-0.6-0.3-0.9,0
			L38-30.4c-1,1-1.8,0.9-3.4,0.4l-11.1-3.4c-2.2-0.6-3.9-1.4-3.9-3.6c0-1.8,1.6-3,3.5-3.7l37.2-14.3c1.2-0.4,2.1-0.6,2.9-0.6
			c1.6,0,2.5,0.9,2.5,2.4c0,0.9-0.2,1.8-0.6,2.9l-14.2,37C50-10.9,48.8-9.4,47.1-9.4z"/>
	</g>
	<g id="Light-S" transform="matrix(1 0 0 1 1107.6 696)" class="st9">
		<path class="st10" d="M45.5,4.4c21.2,0,38.7-17.5,38.7-38.7S66.6-72.9,45.5-72.9c-21.2,0-38.6,17.5-38.6,38.7S24.4,4.4,45.5,4.4z
			 M46.5-9.3c-1.9,0-2.5-1.5-3.2-3.6l-3.7-12.3c-0.4-1.4-0.3-2.1,0.5-2.9l22.6-24.2c0.2-0.3,0.3-0.6,0-0.8c-0.2-0.2-0.5-0.2-0.8,0
			L37.8-30.4c-0.8,0.8-1.6,0.8-2.9,0.4l-12.6-3.8c-2-0.6-3.4-1.3-3.4-3.1c0-1.5,1.3-2.5,3-3.2l38.5-14.8c0.9-0.3,1.7-0.5,2.4-0.5
			c1.3,0,2.1,0.8,2.1,2.1c0,0.7-0.2,1.5-0.5,2.4L49.7-12.5C49-10.6,48-9.3,46.5-9.3z"/>
	</g>
	<g id="Thin-S" transform="matrix(1 0 0 1 811.863 696)" class="st9">
		<path class="st10" d="M44.6,3.5c20.7,0,37.7-17,37.7-37.7c0-20.7-17.1-37.7-37.7-37.7c-20.7,0-37.7,17-37.7,37.7
			C6.8-13.5,23.8,3.5,44.6,3.5z M45.6-9.2c-1.4,0-1.9-1-2.5-2.8l-4.4-14.4c-0.3-0.9-0.1-1.6,0.5-2.2l23.1-24.1
			c0.2-0.2,0.3-0.5,0.1-0.6c-0.2-0.1-0.4-0.1-0.7,0.1L37.5-30.3c-0.6,0.6-1.3,0.7-2.2,0.4l-14.5-4.4C19-34.9,18-35.5,18-36.8
			c0-1.2,0.9-2,2.4-2.5l40.2-15.4c0.6-0.2,1.2-0.4,1.6-0.4c1,0,1.6,0.6,1.6,1.6c0,0.5-0.1,1-0.4,1.6L48.2-11.7
			C47.6-10.1,46.8-9.2,45.6-9.2z"/>
	</g>
	<g id="Ultralight-S" transform="matrix(1 0 0 1 515.649 696)" class="st9">
		<path class="st10" d="M44.1,3c20.4,0,37.2-16.8,37.2-37.2S64.5-71.5,44.1-71.5c-20.5,0-37.2,16.8-37.2,37.2S23.6,3,44.1,3z
			 M45.2-9.2c-1.1,0-1.6-0.8-2.2-2.4l-4.8-15.5c-0.2-0.7,0-1.4,0.4-1.9L62-53.1c0.2-0.2,0.3-0.5,0.1-0.6c-0.2-0.1-0.4-0.1-0.6,0.1
			L37.4-30.3c-0.5,0.5-1.2,0.7-1.9,0.4L20-34.6c-1.7-0.5-2.4-1-2.4-2.2c0-1,0.7-1.7,2.1-2.2l41.1-15.7c0.5-0.2,0.9-0.3,1.2-0.3
			c0.9,0,1.4,0.5,1.4,1.4c0,0.4-0.1,0.8-0.3,1.2L47.4-11.3C46.8-9.9,46.2-9.2,45.2-9.2z"/>
	</g>
</g>
</svg>
